<?xml version="1.0" encoding="UTF-8"?>
<svg height="16px" viewBox="0 0 16 16" width="16px" xmlns="http://www.w3.org/2000/svg">
    <g fill="#ff7800">
        <path d="m 2.019531 12 c -0.550781 0 -1 0.449219 -1 1 s 0.449219 1 1 1 h 3.980469 c 0.550781 0 1 -0.449219 1 -1 s -0.449219 -1 -1 -1 z m 0 0"/>
        <path d="m 8.011719 2 c -0.390625 -0.003906 -0.75 0.222656 -0.917969 0.578125 l -4.644531 10 c -0.234375 0.5 -0.015625 1.09375 0.484375 1.328125 s 1.09375 0.015625 1.328125 -0.484375 l 4.644531 -10 c 0.234375 -0.5 0.015625 -1.09375 -0.484375 -1.328125 c -0.128906 -0.058594 -0.265625 -0.089844 -0.410156 -0.09375 z m 0 0"/>
        <path d="m 10 12 c -0.550781 0 -1 0.449219 -1 1 s 0.449219 1 1 1 h 4.019531 c 0.554688 0 1 -0.449219 1 -1 s -0.445312 -1 -1 -1 z m 0 0"/>
        <path d="m 8.039062 2 c -0.160156 -0.007812 -0.316406 0.027344 -0.464843 0.09375 c -0.5 0.234375 -0.714844 0.828125 -0.480469 1.332031 l 4.6875 10 c 0.234375 0.5 0.832031 0.714844 1.332031 0.480469 s 0.714844 -0.832031 0.480469 -1.332031 l -4.6875 -10 c -0.160156 -0.335938 -0.492188 -0.558594 -0.867188 -0.574219 z m 0 0"/>
        <path d="m 4 2 c -0.550781 0 -1 0.449219 -1 1 s 0.449219 1 1 1 h 4 c 0.550781 0 1 -0.449219 1 -1 s -0.449219 -1 -1 -1 z m 0 0"/>
        <path d="m 5.0625 9 c -0.554688 0 -1 0.449219 -1 1 s 0.445312 1 1 1 h 5.875 c 0.554688 0 1 -0.449219 1 -1 s -0.445312 -1 -1 -1 z m 0 0"/>
    </g>
</svg>
